<?xml version="1.0" encoding="UTF-8"?>
<svg width="52px" height="52px" viewBox="0 0 52 52" version="1.1" xmlns="http://www.w3.org/2000/svg" xmlns:xlink="http://www.w3.org/1999/xlink">
    <!-- Generator: Sketch 49 (51002) - http://www.bohemiancoding.com/sketch -->
    <title>techlogos/angular</title>
    <desc>Created with Sketch.</desc>
    <defs></defs>
    <g id="techlogos/angular" stroke="none" stroke-width="1" fill="none" fill-rule="evenodd">
        <g id="CodeSandbox_-Online-Code-Editor-Tailored-for-Web-Application-Development-3" transform="translate(2.000000, 0.000000)" fill-rule="nonzero">
            <polygon id="Shape" fill="#DD0031" points="23.6712329 0 23.6712329 0 23.6712329 0 0 8.53714286 3.61043509 40.1914286 23.6712329 51.4285714 23.6712329 51.4285714 23.6712329 51.4285714 43.7320307 40.1914286 47.3424658 8.53714286"></polygon>
            <polygon id="Shape" fill="#C3002F" points="24.3287671 0 24.3287671 5.70857143 24.3287671 5.68285714 24.3287671 31.7314286 24.3287671 31.7314286 24.3287671 51.4285714 24.3287671 51.4285714 44.3895649 40.1914286 48 8.53714286"></polygon>
            <path d="M24.0254639,5.93406593 L9.20547945,39.5604396 L14.7311438,39.5604396 L17.710419,32.0363774 L30.289581,32.0363774 L33.2688562,39.5604396 L38.7945205,39.5604396 L24.0254639,5.93406593 Z M28.3543253,27.3982569 L19.6966025,27.3982569 L24.0254639,16.8594164 L28.3543253,27.3982569 Z" id="Shape" fill="#FFFFFF"></path>
        </g>
    </g>
</svg>