<svg xmlns="http://www.w3.org/2000/svg" width="150" height="150" viewBox="0 0 150 150">
    <g fill="none" fill-rule="nonzero">
        <path fill="#2AF598" d="M82 63.145L51.834 46.157a1.23 1.23 0 0 0-1.223.012c-.379.217-.611.602-.611 1.036 0 0 .012 1.566.024 4.144L71.998 73 82 63.145z"/>
        <path fill="#00DBFC" d="M50 53c.035 9.06.14 31.051.187 42L71 74.088 50 53z"/>
        <path fill="#FFEA69" d="M100.374 73.728L83.05 64 73 73.861 84.337 85l16.05-9.186c.38-.217.613-.615.613-1.037 0-.434-.245-.832-.626-1.049z"/>
        <path fill="#FF005B" d="M50 97.02c.024 4.116.037 6.75.037 6.75 0 .445.231.853.61 1.063.377.223.84.223 1.219 0L83 86.423 71.732 75 50 97.02z"/>
    </g>
</svg>
