<svg xmlns="http://www.w3.org/2000/svg" width="18" height="18" viewBox="0 0 18 18">
    <path fill="#000" fill-rule="nonzero" d="M14 6c0-1.11-.89-2-2-2a1.993 1.993 0 0 0-1 3.72v.3c-.02.52-.23.98-.63 1.38-.4.4-.86.61-1.38.63-.83.02-1.48.16-2 .45V5.72a1.993 1.993 0 0 0-1-3.72C4.88 2 4 2.89 4 4a2 2 0 0 0 1 1.72v6.56c-.59.35-1 .99-1 1.72 0 1.11.89 2 2 2 1.11 0 2-.89 2-2 0-.53-.2-1-.53-1.36.09-.06.48-.41.59-.47.25-.11.56-.17.94-.17 1.05-.05 1.95-.45 2.75-1.25s1.2-1.98 1.25-3.02h-.02C13.59 7.37 14 6.73 14 6zM6 2.8c.66 0 1.2.55 1.2 1.2 0 .65-.55 1.2-1.2 1.2-.65 0-1.2-.55-1.2-1.2 0-.65.55-1.2 1.2-1.2zm0 12.41c-.66 0-1.2-.55-1.2-1.2 0-.65.55-1.2 1.2-1.2.65 0 1.2.55 1.2 1.2 0 .65-.55 1.2-1.2 1.2zm6-8c-.66 0-1.2-.55-1.2-1.2 0-.65.55-1.2 1.2-1.2.65 0 1.2.55 1.2 1.2 0 .65-.55 1.2-1.2 1.2z"/>
</svg>
