<?xml version="1.0" encoding="UTF-8"?>
<svg width="150px" height="150px" viewBox="0 0 150 150" version="1.1" xmlns="http://www.w3.org/2000/svg" xmlns:xlink="http://www.w3.org/1999/xlink">
    <!-- Generator: Sketch 49 (51002) - http://www.bohemiancoding.com/sketch -->
    <title>cost</title>
    <desc>Created with Sketch.</desc>
    <defs>
        <linearGradient x1="100%" y1="58.2770228%" x2="1.75365209%" y2="58.2770228%" id="linearGradient-1">
            <stop stop-color="#222222" offset="0%"></stop>
            <stop stop-color="#222222" offset="84.1219056%"></stop>
            <stop stop-color="#FFFFFF" offset="100%"></stop>
        </linearGradient>
    </defs>
    <g id="cost" stroke="none" stroke-width="1" fill="none" fill-rule="evenodd">
        <g id="Group" transform="translate(15.000000, 24.000000)">
            <path d="M1,99.5924746 L20.2798039,86.8192732 L26.5109718,82.7812309 C29.6933779,80.679285 31.1906958,80.6054641 35.0449684,82.5117159 L39.9249169,84.9961469 C41.3175242,85.7128569 42.8839283,86.5237775 44.8526322,87.5462695 C44.9136694,87.5779711 44.9136694,87.5779711 44.9747039,87.6096735 C45.3373944,87.7980644 50.1927604,90.3226941 51.4200881,90.9589942 C53.5722666,92.0747772 54.9347505,92.7739287 55.6860338,93.1454848 C59.0053921,94.787112 61.8521356,95.5242821 64.4211469,95.5242821 C68.0547121,95.5242821 70.4388294,94.554011 74.1957457,92.0726072 C74.8305451,91.6533288 77.032333,90.2308156 81.127101,87.5926442 C83.1279133,86.3035635 91.9111341,80.6480766 93.8692542,79.3867916 C93.8946011,79.3704648 93.8946011,79.3704648 93.9199479,79.3541381 C105.76551,71.7240048 112.211721,67.5546452 113.479501,66.6885266 C116.906189,64.3572697 118.993628,61.6447737 118.994299,59.7476997 C119.183186,54.59546 114.240705,52.8824226 109.073333,56.0783958 L84.4283737,72.4223818 C81.3063722,74.2397145 78.8828262,74.6449316 74.8739219,74.61764 C74.5725188,74.6155882 74.4633615,74.6150108 74.3166338,74.6150108 L60.5489999,74.6150108 C59.5827418,74.6150108 58.5555904,74.5619715 57.4740116,74.4606304 C55.4619147,74.2721021 53.327349,73.9246951 51.1161799,73.4586919 C49.946009,73.2120788 48.8566925,72.9547648 47.7322637,72.6692328 C47.4405793,72.5951638 46.5397528,72.3622306 46.7080164,72.4054897 C46.5983088,72.3772816 46.5216132,72.3579586 46.4677955,72.3450403 C46.4950227,72.3515905 46.4711687,72.3453617 46.5662466,72.3453617 L46.4036664,72.3453617 L46.2494596,72.2938584 C45.0701384,71.8999786 44.4438156,70.6561265 44.9248818,69.6122157 C45.348469,68.4533892 46.3345918,67.9413557 47.4412386,68.3152151 C47.4880354,68.3262563 48.5786553,68.5991415 49.1155847,68.7286495 C50.1499078,68.9781294 51.1877998,69.2124558 52.2629443,69.4331831 C53.9887331,69.7874879 55.6506006,70.0730597 57.2105267,70.2693243 C58.709514,70.4579218 60.0716182,70.5581413 61.2660641,70.5581413 L74.3166338,70.5581413 C75.8619635,70.5581413 77.0941246,70.2068401 77.8773053,69.6220454 C78.7128199,68.9981751 79.2251476,68.4261423 79.5648174,67.7584071 C79.6535896,67.5521042 79.7452781,67.3473472 79.8398819,67.1441392 C79.9118697,66.922864 79.9501656,66.727595 79.9687485,66.5086957 C79.9833994,66.3361136 79.9861885,66.189714 79.9854925,65.8069994 C79.9853723,65.7405379 79.9853723,65.7405379 79.9853315,65.6712387 C79.9853315,63.2037408 77.7762079,61.1829534 74.0389129,60.9951544 C70.3391039,60.7630852 65.2525399,59.8593296 60.9809068,58.6859474 C58.9490577,58.0814526 57.1937433,57.3964767 55.9467174,56.7797452 L55.8420225,56.719852 C55.1376803,56.2584126 54.4600342,55.6646249 53.3639015,54.5792537 C52.1405779,53.2667586 51.6866973,52.8025794 50.9061343,52.1151209 C47.4217309,49.046332 43.0337261,47.3792208 36.2405212,47.3792208 C31.0025855,47.3792208 26.9005858,48.8526317 7.03582467,57.7174812 L1,60.4311604 L1,99.5924746 Z M46.7080164,72.4054897 C46.7141082,72.4070558 46.7216013,72.408984 46.7305754,72.4112948 C46.7240974,72.4096267 46.7177332,72.4079891 46.7114802,72.4063813 Z M46.4677955,72.3450403 C46.4656641,72.3445287 46.4635685,72.3440271 46.461508,72.3435354 C46.4643425,72.3442119 46.4667667,72.3447978 46.468868,72.345303 Z" id="Path" stroke="url(#linearGradient-1)" stroke-width="2"></path>
            <path d="M69.0420996,56.7714093 C71.2304737,57.1976702 73.3118761,57.4431799 74.881853,57.4431799 C76.2474146,57.4431799 77.6944641,57.765176 79.073859,58.2903754 L92.142713,48.8797742 C91.8899759,48.7506562 91.6235003,48.6235741 91.344717,48.5008037 C89.7500837,47.7985599 88.0869719,47.3792208 86.4518539,47.3792208 C84.175657,47.3792208 81.7025651,48.2556626 79.5166124,49.8736975 C78.7093871,50.362312 78.6210802,50.4206141 71.9834177,54.8252617 C71.9431683,54.8519702 71.9431683,54.8519702 71.9029171,54.8786782 C70.7878626,55.618542 69.85435,56.2363594 69.0420996,56.7714093 Z" id="Path" stroke="#333333" stroke-width="2"></path>
            <path d="M82.5258275,59.427404 C83.9667023,61.0589573 84.7327027,63.049744 84.7327027,65.1186438 C84.7327027,65.6986354 84.6661293,66.2973507 84.5372303,66.8951965 L107.238778,51.6575903 C106.418116,49.9406248 104.01491,48.8285714 101.657346,48.8285714 C99.4139864,48.8285714 96.7945853,49.8143354 93.185648,52.1564823 L82.5258275,59.427404 Z" id="Path" stroke="#333333" stroke-width="2"></path>
            <path d="M90.5310135,14.1967431 C90.328963,7.43785336 84.9935651,2 78.5805723,2 C73.5990722,2 69.2973639,5.26297274 67.6042529,9.95504889 C69.3215536,10.1908824 70.9959639,10.6622234 72.5943989,11.3451878 C72.6504674,11.2689128 72.7130607,11.1948229 72.7824036,11.1234502 L76.2161386,7.58920473 C76.5927333,7.20158649 77.110166,6.98287381 77.6506024,6.98287381 L80.440512,6.98287381 C81.5450815,6.98287381 82.440512,7.87830431 82.440512,8.98287381 L82.440512,19.5856101 C82.440512,19.7548624 82.4194881,19.9192043 82.3799092,20.0761667 C83.2041895,21.5358452 83.8973688,23.1196985 84.4477637,24.7815149 C88.165573,22.7076349 90.5302466,18.7535339 90.5310135,14.1967431 Z M76.1599894,10.5171192 L74.8059549,11.9107883 L74.2168675,12.5171192 L74.8059549,13 L75.6513313,13.9107883 L77.0053658,12.5171192 L77.0067771,16.4931454 C73.8055358,13.6675892 69.6385542,11.7808181 65.060241,11.7808181 C66.2048193,5.18171981 71.7131024,0 78.5805723,0 C86.136577,0 92.2976292,6.35980162 92.5301205,14.1369817 C92.5301205,20.4967834 88.6492858,25.6508913 83.1588855,27.5376623 C82.4703507,24.7121062 81.3257724,21.9417737 79.7251506,19.5856101 L80.440512,19.5856101 L80.440512,8.98287381 L77.6506024,8.98287381 L76.1599894,10.5171192 Z" id="Path" fill="#2AF598" fill-rule="nonzero"></path>
            <path d="M65.060241,16.4935065 C57.3088812,16.4935065 51.1566265,22.6609421 51.1566265,30.4363636 C51.1566265,38.2117866 57.3088804,44.3792208 65.060241,44.3792208 C72.811603,44.3792208 78.9638554,38.2117875 78.9638554,30.4363636 C78.9638554,22.6609413 72.8116022,16.4935065 65.060241,16.4935065 Z M65.060241,14.4935065 C73.9172774,14.4935065 80.9638554,21.5574745 80.9638554,30.4363636 C80.9638554,39.3152551 73.9172774,46.3792208 65.060241,46.3792208 C56.2032068,46.3792208 49.1566265,39.3152551 49.1566265,30.4363636 C49.1566265,21.5574745 56.2032068,14.4935065 65.060241,14.4935065 Z" id="Path" fill="#2AF598" fill-rule="nonzero"></path>
            <path d="M62.2462951,27.372333 L63.0012909,27.372333 C63.5535756,27.372333 64.0012909,27.8200483 64.0012909,28.372333 L64.0012909,35.557282 L66.119191,35.557282 L66.119191,25.3154453 L64.3341169,25.3154453 L62.2462951,27.372333 Z M59.8063683,29.372333 C58.9118605,29.372333 58.467343,28.2877429 59.1045586,27.6599686 L63.2224587,23.6030808 C63.4095479,23.4187637 63.6616373,23.3154453 63.9242685,23.3154453 L67.119191,23.3154453 C67.6714758,23.3154453 68.119191,23.7631605 68.119191,24.3154453 L68.119191,36.557282 C68.119191,37.1095668 67.6714758,37.557282 67.119191,37.557282 L63.0012909,37.557282 C62.4490061,37.557282 62.0012909,37.1095668 62.0012909,36.557282 L62.0012909,29.372333 L59.8063683,29.372333 Z" id="Path" fill="#2AF598" fill-rule="nonzero"></path>
        </g>
    </g>
</svg>