<svg xmlns="http://www.w3.org/2000/svg" width="150" height="150" viewBox="0 0 150 150">
    <defs>
        <linearGradient id="a" x1="6.735%" x2="92.809%" y1="100%" y2="100%">
            <stop offset="0%" stop-color="#FF005B"/>
            <stop offset="23.118%" stop-color="#FFEA69"/>
            <stop offset="49.989%" stop-color="#FFEA69"/>
            <stop offset="77.017%" stop-color="#FFEA69"/>
            <stop offset="100%" stop-color="#2AF598"/>
        </linearGradient>
    </defs>
    <g fill="none" fill-rule="evenodd">
        <path stroke="url(#a)" stroke-linecap="round" stroke-linejoin="round" stroke-width="5.6" d="M112.307 90C117.206 81.251 120 71.15 120 60.393 120 27.039 93.137 0 60 0S0 27.039 0 60.393c0 10.71 2.77 20.769 7.628 29.49" transform="translate(15 30)"/>
        <path fill="#333" d="M71.003 97.657c2.298.836 15.396 3.433 39.294 7.79a1.4 1.4 0 0 0 .944-2.594c-21.107-12.025-32.81-18.455-35.108-19.291-3.816-1.39-8.058.64-9.475 4.532-1.416 3.893.529 8.174 4.345 9.563z"/>
    </g>
</svg>
