<svg xmlns="http://www.w3.org/2000/svg" width="18" height="18" viewBox="0 0 18 18">
    <path fill="#000" fill-rule="nonzero" d="M12 2a1.993 1.993 0 0 0-1 3.72V7L9 9 7 7V5.72A1.993 1.993 0 0 0 6 2a1.993 1.993 0 0 0-1 3.72V7.5l3 3v1.78A1.993 1.993 0 0 0 9 16a1.993 1.993 0 0 0 1-3.72V10.5l3-3V5.72A1.993 1.993 0 0 0 12 2zM6 5.2c-.66 0-1.2-.55-1.2-1.2 0-.65.55-1.2 1.2-1.2.65 0 1.2.55 1.2 1.2 0 .65-.55 1.2-1.2 1.2zm3 10c-.66 0-1.2-.55-1.2-1.2 0-.65.55-1.2 1.2-1.2.65 0 1.2.55 1.2 1.2 0 .65-.55 1.2-1.2 1.2zm3-10c-.66 0-1.2-.55-1.2-1.2 0-.65.55-1.2 1.2-1.2.65 0 1.2.55 1.2 1.2 0 .65-.55 1.2-1.2 1.2z"/>
</svg>
