<svg xmlns="http://www.w3.org/2000/svg" width="24" height="24" viewBox="0 0 24 24">
    <path fill="#333" fill-rule="nonzero" d="M11.966 1C5.911 1 1 5.911 1 11.966c0 4.844 3.162 8.948 7.468 10.428.538.068.74-.269.74-.538v-1.884c-3.028.673-3.7-1.48-3.7-1.48-.471-1.278-1.211-1.614-1.211-1.614-1.01-.673.067-.673.067-.673 1.076.067 1.682 1.144 1.682 1.144 1.009 1.682 2.556 1.21 3.162.942.067-.74.404-1.211.673-1.48-2.422-.27-4.979-1.212-4.979-5.45 0-1.211.404-2.153 1.144-2.96-.067-.202-.471-1.346.134-2.826 0 0 .942-.27 3.028 1.144.875-.27 1.816-.337 2.758-.337s1.884.135 2.759.337c2.085-1.413 3.027-1.144 3.027-1.144.606 1.48.202 2.624.135 2.893a4.352 4.352 0 0 1 1.144 2.96c0 4.239-2.557 5.113-4.979 5.382.404.337.74 1.01.74 2.019v3.027c0 .27.202.606.74.538A10.978 10.978 0 0 0 23 11.966C22.933 5.911 18.021 1 11.966 1z"/>
</svg>
