<svg xmlns="http://www.w3.org/2000/svg" width="24" height="24" viewBox="0 0 24 24">
    <g fill="#333" fill-rule="evenodd">
        <path d="M11.984 2.295c-2.711 0-3.052.01-4.117.059-1.062.048-1.788.213-2.423.458a4.891 4.891 0 0 0-1.768 1.134 4.82 4.82 0 0 0-1.152 1.743c-.247.625-.416 1.34-.464 2.386C2.012 9.125 2 9.46 2 12.131c0 2.672.012 3.006.06 4.055.048 1.048.217 1.762.464 2.389a4.808 4.808 0 0 0 1.152 1.741 4.894 4.894 0 0 0 1.768 1.136c.635.243 1.36.41 2.423.456 1.065.048 1.406.06 4.117.06 2.71 0 3.05-.012 4.116-.06 1.063-.047 1.788-.213 2.423-.456a4.889 4.889 0 0 0 1.769-1.136 4.79 4.79 0 0 0 1.15-1.741c.247-.627.416-1.341.465-2.389.049-1.049.06-1.383.06-4.055 0-2.671-.011-3.006-.06-4.056-.049-1.047-.218-1.761-.464-2.386a4.803 4.803 0 0 0-1.151-1.743 4.886 4.886 0 0 0-1.77-1.134c-.634-.245-1.36-.41-2.422-.458-1.065-.048-1.405-.06-4.116-.06m0 1.773c2.665 0 2.98.01 4.033.057.975.044 1.502.204 1.855.338.465.18.798.392 1.147.736.35.345.566.673.747 1.132.137.347.3.868.343 1.826.05 1.038.06 1.349.06 3.975 0 2.626-.01 2.937-.06 3.975-.043.959-.206 1.48-.343 1.826a3.04 3.04 0 0 1-.747 1.13 3.09 3.09 0 0 1-1.147.737c-.353.134-.88.295-1.855.339-1.052.047-1.368.058-4.033.058-2.666 0-2.982-.011-4.035-.058-.973-.044-1.502-.205-1.853-.34a3.093 3.093 0 0 1-1.149-.735 3.04 3.04 0 0 1-.747-1.13c-.136-.347-.298-.868-.343-1.827-.048-1.038-.058-1.349-.058-3.975 0-2.626.01-2.937.058-3.975.045-.958.207-1.479.343-1.826.182-.459.398-.787.747-1.132.35-.344.682-.556 1.149-.736.351-.134.88-.294 1.853-.338 1.053-.047 1.37-.057 4.035-.057"/>
        <path d="M11.984 15.41c-1.838 0-3.328-1.468-3.328-3.278 0-1.811 1.49-3.28 3.328-3.28 1.838 0 3.328 1.469 3.328 3.28 0 1.81-1.49 3.278-3.328 3.278m0-8.33c-2.831 0-5.127 2.261-5.127 5.052 0 2.789 2.296 5.05 5.127 5.05 2.83 0 5.126-2.261 5.126-5.05 0-2.79-2.295-5.052-5.126-5.052M18.511 6.88c0 .653-.537 1.18-1.198 1.18a1.19 1.19 0 0 1-1.199-1.18c0-.651.537-1.18 1.2-1.18a1.19 1.19 0 0 1 1.197 1.18"/>
    </g>
</svg>
