<svg xmlns="http://www.w3.org/2000/svg" width="18" height="18" viewBox="0 0 18 18">
    <path fill="#000" fill-rule="nonzero" d="M9 5c-.83 0-1.5-.67-1.5-1.5S8.17 2 9 2s1.5.67 1.5 1.5S9.83 5 9 5zm7 6c0 1.11-.89 2-2 2h-1c-1.11 0-2-.89-2-2l2-4h-1c-.55 0-1-.45-1-1h-1v8c.42 0 1 .45 1 1h1c.42 0 1 .45 1 1H5c0-.55.58-1 1-1h1c0-.55.58-1 1-1h.03L8 6H7c0 .55-.45 1-1 1H5l2 4c0 1.11-.89 2-2 2H4c-1.11 0-2-.89-2-2l2-4H3V6h3c0-.55.45-1 1-1h4c.55 0 1 .45 1 1h3v1h-1l2 4zM4.5 8L3 11h3L4.5 8zM15 11l-1.5-3-1.5 3h3z"/>
</svg>
