<svg xmlns="http://www.w3.org/2000/svg" width="1389" height="827" viewBox="0 0 1389 827">
    <g fill="none" fill-rule="evenodd" stroke="#F3F3F3" stroke-width="1">
        <path stroke-linecap="round" stroke-linejoin="round" d="M521 808c100.5 21 173.5 10 283-43s109.813-119 237.5-51.5 300.5-14.5 251-203M593 295.5c-53-30.333-121.333-36.833-205-19.5-125.5 26-145.5 124.5-232.657 80C68.186 311.5-16 357.5 4.5 458s155 94 145 203"/>
        <path d="M553 326c50.412 63.955 108.475 70.95 189.494 103.427C823.512 461.904 846.918 574.823 986 534.352"/>
        <path stroke-linecap="round" stroke-linejoin="round" d="M1021 72.393C898.932 8.77 805.242 112.97 762 128M786 144.033c-36.607 12.731-114.779-39.467-167.402 0C565.975 183.5 566.357 266.679 609.065 321M1140.158 391c25.122-17.073 52.167-27.464 88.271-22.355 101.855 14.413 101.473-242.469-23.27-208.557-31.388 8.533-52.897 12.181-69.159 12.005M1021 494c33.619-9.785 60.034-25.663 83-43M1087 153c-16.86-14.007-36.554-34.137-78-56"/>
        <path stroke-linecap="round" stroke-linejoin="round" d="M1150 196.327c-99.116 10.982-87.402-34.444-155.594-67.69-68.191-33.245-121.931 28.073-171.554 54.711-49.622 26.638-100.376-30.97-141.852 0M690.37 280.293c28.995 46.017 67.048 54.717 118.558 81.951 51.51 27.235 59.16 103.908 154.306 86.716M294.5 197C241 315 143 341.5 143 441.31c0 99.808 67.5 101.19 174 202.19M1326.92 698.243c-53.401 46.904-103.723 43.388-177.75 58.088-74.027 14.7-112.782 108.309-223.72 50.495M306 76.996c-60.364 34.145-97.33-26.716-156.667 0C89.997 103.712 118.357 231.929 168.426 275M1271 430c63.415-30.917 113.257 3.748 126.83-24.359 21.78-45.103-77.934-54.075-18.572-240.695 21.781-68.475-22.613-93.302-70.818-82.528M986 414c31.593-9.102 56.418-23.872 78-40M1224.102 115.893c-92.919-10.895-72.639-49.883-127.969-94.617-55.33-44.735-117.375-.11-168.35 13.73-50.973 13.839-85.23-49.45-129.67-29.938M645.997 497.44c-48.836 14.736-81.118-2.517-134.33-14.928-53.21-12.411-105.802 37.158-162.558-33.547"/>
    </g>
</svg>
