<?xml version="1.0" encoding="UTF-8"?>
<svg width="640px" height="7px" viewBox="0 0 640 7" version="1.1" xmlns="http://www.w3.org/2000/svg" xmlns:xlink="http://www.w3.org/1999/xlink">
    <!-- Generator: Sketch 49 (51002) - http://www.bohemiancoding.com/sketch -->
    <title>Path 2 Copy 3</title>
    <desc>Created with Sketch.</desc>
    <defs></defs>
    <g id="MADPWA-7" stroke="none" stroke-width="1" fill="none" fill-rule="evenodd" stroke-linecap="round" stroke-linejoin="round">
        <g id="MADPWA_7" transform="translate(-60.000000, -6206.000000)" stroke="#F0F0F0" stroke-width="2">
            <g id="примущества" transform="translate(60.000000, 2805.000000)">
                <g id="Stacked-Group-3" transform="translate(0.000000, 929.000000)">
                    <g id="7" transform="translate(1.000000, 2061.000000)">
                        <g id="lines" transform="translate(0.000000, 352.000000)">
                            <path d="M0,61.7729666 L0.307339641,62.5145045 C1.05627472,64.3215078 3.12827215,65.1792415 4.93527543,64.4303064 C5.78925292,64.0763648 6.47100495,63.4025652 6.83494175,62.5527992 C7.61768335,60.7251545 9.73381962,59.8780931 11.5614644,60.6608347 C12.4117661,61.0250009 13.0892627,61.7024975 13.453429,62.5527992 C14.2361706,64.380444 16.3523068,65.2275054 18.1799516,64.4447638 C19.0302533,64.0805976 19.7077499,63.403101 20.0719162,62.5527992 C20.8546578,60.7251545 22.970794,59.8780931 24.7984388,60.6608347 C25.6487405,61.0250009 26.3262371,61.7024975 26.6904034,62.5527992 C27.473145,64.380444 29.5892812,65.2275054 31.416926,64.4447638 C32.2672278,64.0805976 32.9447243,63.403101 33.3088906,62.5527992 C34.0916322,60.7251545 36.2077685,59.8780931 38.0354132,60.6608347 C38.885715,61.0250009 39.5632115,61.7024975 39.9273778,62.5527992 C40.7101194,64.380444 42.8262557,65.2275054 44.6539004,64.4447638 C45.5042022,64.0805976 46.1816988,63.403101 46.545865,62.5527992 C47.3286066,60.7251545 49.4447429,59.8780931 51.2723877,60.6608347 C52.1226894,61.0250009 52.800186,61.7024975 53.1643522,62.5527992 C53.9470938,64.380444 56.0632301,65.2275054 57.8908749,64.4447638 C58.7411766,64.0805976 59.4186732,63.403101 59.7828394,62.5527992 C60.565581,60.7251545 62.6817173,59.8780931 64.5093621,60.6608347 C65.3596638,61.0250009 66.0371604,61.7024975 66.4013266,62.5527992 C67.1840682,64.380444 69.3002045,65.2275054 71.1278493,64.4447638 C71.978151,64.0805976 72.6556476,63.403101 73.0198138,62.5527992 C73.8025554,60.7251545 75.9186917,59.8780931 77.7463365,60.6608347 C78.5966382,61.0250009 79.2741348,61.7024975 79.638301,62.5527992 C80.4210426,64.380444 82.5371789,65.2275054 84.3648237,64.4447638 C85.2151254,64.0805976 85.892622,63.403101 86.2567882,62.5527992 C87.0395299,60.7251545 89.1556661,59.8780931 90.9833109,60.6608347 C91.8336126,61.0250009 92.5111092,61.7024975 92.8752755,62.5527992 C93.6580171,64.380444 95.7741533,65.2275054 97.6017981,64.4447638 C98.4520998,64.0805976 99.1295964,63.403101 99.4937627,62.5527992 C100.276504,60.7251545 102.392641,59.8780931 104.220285,60.6608347 C105.070587,61.0250009 105.748084,61.7024975 106.11225,62.5527992 C106.894991,64.380444 109.011128,65.2275054 110.838773,64.4447638 C111.689074,64.0805976 112.366571,63.403101 112.730737,62.5527992 C113.513479,60.7251545 115.629615,59.8780931 117.45726,60.6608347 C118.307561,61.0250009 118.985058,61.7024975 119.349224,62.5527992 C120.131966,64.380444 122.248102,65.2275054 124.075747,64.4447638 C124.926049,64.0805976 125.603545,63.403101 125.967712,62.5527992 C126.750453,60.7251545 128.866589,59.8780931 130.694234,60.6608347 C131.544536,61.0250009 132.222032,61.7024975 132.586199,62.5527992 C133.36894,64.380444 135.485077,65.2275054 137.312721,64.4447638 C138.163023,64.0805976 138.84052,63.403101 139.204686,62.5527992 L139.425086,62.0381815 C140.155696,60.3322603 142.130895,59.5416142 143.836816,60.2722243 C144.630487,60.6121366 145.262861,61.244511 145.602773,62.0381815 L146.032018,62.5145045 C146.780953,64.3215078 148.85295,65.1792415 150.659953,64.4303064 C151.513931,64.0763648 152.195683,63.4025652 152.55962,62.5527992 C153.342361,60.7251545 155.458498,59.8780931 157.286142,60.6608347 C158.136444,61.0250009 158.813941,61.7024975 159.178107,62.5527992 C159.960849,64.380444 162.076985,65.2275054 163.90463,64.4447638 C164.754931,64.0805976 165.432428,63.403101 165.796594,62.5527992 C166.579336,60.7251545 168.695472,59.8780931 170.523117,60.6608347 C171.373419,61.0250009 172.050915,61.7024975 172.415081,62.5527992 C173.197823,64.380444 175.313959,65.2275054 177.141604,64.4447638 C177.991906,64.0805976 178.669402,63.403101 179.033569,62.5527992 C179.81631,60.7251545 181.932446,59.8780931 183.760091,60.6608347 C184.610393,61.0250009 185.28789,61.7024975 185.652056,62.5527992 C186.518708,64.5763683 188.861695,65.514235 190.885264,64.6475832 C191.730429,64.2856166 192.424472,63.642598 192.849798,62.8274766 L193.400036,61.7729666 C194.182777,60.4822848 196.298914,59.6352235 198.126558,60.4179651 C198.97686,60.7821313 199.654357,61.4596279 200.018523,62.3099296 C200.801264,64.1375744 202.917401,64.9846358 204.745045,64.2018942 C205.595347,63.8377279 206.272844,63.1602313 206.63701,62.3099296 C207.419752,60.4822848 209.535888,59.6352235 211.363533,60.4179651 C212.213834,60.7821313 212.891331,61.4596279 213.255497,62.3099296 C214.038239,64.1375744 216.154375,64.9846358 217.98202,64.2018942 C218.832322,63.8377279 219.509818,63.1602313 219.873984,62.3099296 C220.656726,60.4822848 222.772862,59.6352235 224.600507,60.4179651 C225.450809,60.7821313 226.128305,61.4596279 226.492472,62.3099296 C227.275213,64.1375744 229.39135,64.9846358 231.218994,64.2018942 C232.069296,63.8377279 232.746793,63.1602313 233.110959,62.3099296 C233.8937,60.4822848 236.009837,59.6352235 237.837482,60.4179651 C238.687783,60.7821313 239.36528,61.4596279 239.729446,62.3099296 C240.512188,64.1375744 242.628324,64.9846358 244.455969,64.2018942 C245.30627,63.8377279 245.983767,63.1602313 246.347933,62.3099296 C247.130675,60.4822848 249.246811,59.6352235 251.074456,60.4179651 C251.924758,60.7821313 252.602254,61.4596279 252.966421,62.3099296 C253.749162,64.1375744 255.865298,64.9846358 257.692943,64.2018942 C258.543245,63.8377279 259.220741,63.1602313 259.584908,62.3099296 C260.367649,60.4822848 262.483786,59.6352235 264.31143,60.4179651 C265.161732,60.7821313 265.839229,61.4596279 266.203395,62.3099296 C266.986137,64.1375744 269.102273,64.9846358 270.929918,64.2018942 C271.780219,63.8377279 272.457716,63.1602313 272.821882,62.3099296 C273.604624,60.4822848 275.72076,59.6352235 277.548405,60.4179651 C278.398707,60.7821313 279.076203,61.4596279 279.440369,62.3099296 C280.223111,64.1375744 282.339247,64.9846358 284.166892,64.2018942 C285.017194,63.8377279 285.69469,63.1602313 286.058857,62.3099296 C286.841598,60.4822848 288.957734,59.6352235 290.785379,60.4179651 C291.635681,60.7821313 292.313178,61.4596279 292.677344,62.3099296 C293.460085,64.1375744 295.576222,64.9846358 297.403866,64.2018942 C298.254168,63.8377279 298.931665,63.1602313 299.295831,62.3099296 C300.078573,60.4822848 302.194709,59.6352235 304.022354,60.4179651 C304.872655,60.7821313 305.550152,61.4596279 305.914318,62.3099296 C306.69706,64.1375744 308.813196,64.9846358 310.640841,64.2018942 C311.491143,63.8377279 312.168639,63.1602313 312.532805,62.3099296 C313.315547,60.4822848 315.431683,59.6352235 317.259328,60.4179651 C318.10963,60.7821313 318.787126,61.4596279 319.151293,62.3099296 L319.156047,62.5145045 C319.904982,64.3215078 321.97698,65.1792415 323.783983,64.4303064 C324.63796,64.0763648 325.319712,63.4025652 325.683649,62.5527992 C326.466391,60.7251545 328.582527,59.8780931 330.410172,60.6608347 C331.260474,61.0250009 331.93797,61.7024975 332.302136,62.5527992 C333.084878,64.380444 335.201014,65.2275054 337.028659,64.4447638 C337.878961,64.0805976 338.556457,63.403101 338.920624,62.5527992 C339.703365,60.7251545 341.819501,59.8780931 343.647146,60.6608347 C344.497448,61.0250009 345.174945,61.7024975 345.539111,62.5527992 C346.321852,64.380444 348.437989,65.2275054 350.265633,64.4447638 C351.115935,64.0805976 351.793432,63.403101 352.157598,62.5527992 C352.94034,60.7251545 355.056476,59.8780931 356.884121,60.6608347 C357.734422,61.0250009 358.411919,61.7024975 358.776085,62.5527992 C359.558827,64.380444 361.674963,65.2275054 363.502608,64.4447638 C364.35291,64.0805976 365.030406,63.403101 365.394572,62.5527992 C366.177314,60.7251545 368.29345,59.8780931 370.121095,60.6608347 C370.971397,61.0250009 371.648893,61.7024975 372.01306,62.5527992 C372.795801,64.380444 374.911937,65.2275054 376.739582,64.4447638 C377.589884,64.0805976 378.267381,63.403101 378.631547,62.5527992 C379.414288,60.7251545 381.530425,59.8780931 383.358069,60.6608347 C384.208371,61.0250009 384.885868,61.7024975 385.250034,62.5527992 C386.032776,64.380444 388.148912,65.2275054 389.976557,64.4447638 C390.826858,64.0805976 391.504355,63.403101 391.868521,62.5527992 C392.651263,60.7251545 394.767399,59.8780931 396.595044,60.6608347 C397.445346,61.0250009 398.122842,61.7024975 398.487008,62.5527992 C399.26975,64.380444 401.385886,65.2275054 403.213531,64.4447638 C404.063833,64.0805976 404.741329,63.403101 405.105496,62.5527992 C405.888237,60.7251545 408.004374,59.8780931 409.832018,60.6608347 C410.68232,61.0250009 411.359817,61.7024975 411.723983,62.5527992 C412.506724,64.380444 414.622861,65.2275054 416.450506,64.4447638 C417.300807,64.0805976 417.978304,63.403101 418.34247,62.5527992 C419.125212,60.7251545 421.241348,59.8780931 423.068993,60.6608347 C423.919294,61.0250009 424.596791,61.7024975 424.960957,62.5527992 C425.743699,64.380444 427.859835,65.2275054 429.68748,64.4447638 C430.537782,64.0805976 431.215278,63.403101 431.579444,62.5527992 C432.362186,60.7251545 434.478322,59.8780931 436.305967,60.6608347 C437.156269,61.0250009 437.833765,61.7024975 438.197932,62.5527992 C438.980673,64.380444 441.09681,65.2275054 442.924454,64.4447638 C443.774756,64.0805976 444.452253,63.403101 444.816419,62.5527992 C445.599161,60.7251545 447.715297,59.8780931 449.542942,60.6608347 C450.393243,61.0250009 451.07074,61.7024975 451.434906,62.5527992 C452.217648,64.380444 454.333784,65.2275054 456.161429,64.4447638 C457.01173,64.0805976 457.689227,63.403101 458.053393,62.5527992 L458.273793,62.0381815 C459.004403,60.3322603 460.979602,59.5416142 462.685523,60.2722243 C463.479194,60.6121366 464.111568,61.244511 464.451481,62.0381815 L464.880725,62.5145045 C465.62966,64.3215078 467.701658,65.1792415 469.508661,64.4303064 C470.362638,64.0763648 471.04439,63.4025652 471.408327,62.5527992 C472.191069,60.7251545 474.307205,59.8780931 476.13485,60.6608347 C476.985152,61.0250009 477.662648,61.7024975 478.026814,62.5527992 C478.809556,64.380444 480.925692,65.2275054 482.753337,64.4447638 C483.603639,64.0805976 484.281135,63.403101 484.645302,62.5527992 C485.428043,60.7251545 487.544179,59.8780931 489.371824,60.6608347 C490.222126,61.0250009 490.899623,61.7024975 491.263789,62.5527992 C492.04653,64.380444 494.162667,65.2275054 495.990311,64.4447638 C496.840613,64.0805976 497.51811,63.403101 497.882276,62.5527992 C498.665018,60.7251545 500.781154,59.8780931 502.608799,60.6608347 C503.4591,61.0250009 504.136597,61.7024975 504.500763,62.5527992 C505.367415,64.5763683 507.710402,65.514235 509.733971,64.6475832 C510.579137,64.2856166 511.27318,63.642598 511.698506,62.8274766 L512.248743,61.7729666 C513.031485,60.4822848 515.147621,59.6352235 516.975266,60.4179651 C517.825567,60.7821313 518.503064,61.4596279 518.86723,62.3099296 C519.649972,64.1375744 521.766108,64.9846358 523.593753,64.2018942 C524.444055,63.8377279 525.121551,63.1602313 525.485717,62.3099296 C526.268459,60.4822848 528.384595,59.6352235 530.21224,60.4179651 C531.062542,60.7821313 531.740038,61.4596279 532.104205,62.3099296 C532.886946,64.1375744 535.003083,64.9846358 536.830727,64.2018942 C537.681029,63.8377279 538.358526,63.1602313 538.722692,62.3099296 C539.505433,60.4822848 541.62157,59.6352235 543.449215,60.4179651 C544.299516,60.7821313 544.977013,61.4596279 545.341179,62.3099296 C546.123921,64.1375744 548.240057,64.9846358 550.067702,64.2018942 C550.918003,63.8377279 551.5955,63.1602313 551.959666,62.3099296 C552.742408,60.4822848 554.858544,59.6352235 556.686189,60.4179651 C557.536491,60.7821313 558.213987,61.4596279 558.578153,62.3099296 C559.360895,64.1375744 561.477031,64.9846358 563.304676,64.2018942 C564.154978,63.8377279 564.832474,63.1602313 565.196641,62.3099296 C565.979382,60.4822848 568.095519,59.6352235 569.923163,60.4179651 C570.773465,60.7821313 571.450962,61.4596279 571.815128,62.3099296 C572.59787,64.1375744 574.714006,64.9846358 576.541651,64.2018942 C577.391952,63.8377279 578.069449,63.1602313 578.433615,62.3099296 C579.216357,60.4822848 581.332493,59.6352235 583.160138,60.4179651 C584.01044,60.7821313 584.687936,61.4596279 585.052102,62.3099296 C585.834844,64.1375744 587.95098,64.9846358 589.778625,64.2018942 C590.628927,63.8377279 591.306423,63.1602313 591.67059,62.3099296 C592.453331,60.4822848 594.569467,59.6352235 596.397112,60.4179651 C597.247414,60.7821313 597.924911,61.4596279 598.289077,62.3099296 C599.071818,64.1375744 601.187955,64.9846358 603.015599,64.2018942 C603.865901,63.8377279 604.543398,63.1602313 604.907564,62.3099296 C605.690306,60.4822848 607.806442,59.6352235 609.634087,60.4179651 C610.484388,60.7821313 611.161885,61.4596279 611.526051,62.3099296 C612.308793,64.1375744 614.424929,64.9846358 616.252574,64.2018942 C617.102876,63.8377279 617.780372,63.1602313 618.144538,62.3099296 C618.92728,60.4822848 621.043416,59.6352235 622.871061,60.4179651 C623.721363,60.7821313 624.398859,61.4596279 624.763026,62.3099296 C625.545767,64.1375744 627.661903,64.9846358 629.489548,64.2018942 C630.33985,63.8377279 631.017347,63.1602313 631.381513,62.3099296 C632.164254,60.4822848 634.280391,59.6352235 636.108035,60.4179651 C636.958337,60.7821313 637.635834,61.4596279 638,62.3099296" id="Path-2-Copy-3"></path>
                        </g>
                    </g>
                </g>
            </g>
        </g>
    </g>
</svg>