<?xml version="1.0" encoding="UTF-8"?>
<svg width="316px" height="52px" viewBox="0 0 316 52" version="1.1" xmlns="http://www.w3.org/2000/svg" xmlns:xlink="http://www.w3.org/1999/xlink">
    <!-- Generator: Sketch 49 (51002) - http://www.bohemiancoding.com/sketch -->
    <title>MADPWA_yellow</title>
    <desc>Created with Sketch.</desc>
    <defs></defs>
    <g id="MADPWA_yellow" stroke="none" stroke-width="1" fill="none" fill-rule="evenodd">
        <g id="Group-7" fill="#333333">
            <path d="M191.99218,34.1461714 L200.422717,34.1461714 C202.97648,34.1461714 205.250508,33.8567401 207.244803,33.2778776 L209.425053,26.4571755 L215.518508,7.39432925 C215.054213,6.64705034 214.524148,5.94050122 213.928311,5.27477388 C210.799684,1.75823673 206.222225,2.87425578e-05 200.195795,2.87425578e-05 L179,2.87425578e-05 L179,51.9952599 L191.99218,51.9952599 L191.99218,34.1461714 Z M203.151287,11.9620517 C204.373336,13.2109714 204.984291,14.8822585 204.984291,16.9760544 C204.984291,19.0859102 204.44691,20.759249 203.372217,21.9960707 C202.194061,23.3703565 200.02468,24.0574639 196.864213,24.0574639 L191.99218,24.0574639 L191.99218,10.088566 L196.900025,10.088566 C199.845553,10.088566 201.929307,10.7130612 203.151287,11.9620517 Z M279.092377,42.682732 L283.021189,32.5940952 L294.365205,32.5940952 L288.981639,17.2901769 L295.714754,3.73788735e-05 L315,51.9952599 L300.777828,51.9952599 L297.482336,42.682732 L279.092377,42.682732 Z M266.958975,51.9954014 L253.45373,51.9954014 L244.16323,21.8629932 L234.419094,51.9954014 L220.949311,51.9954014 L213.962311,39.8184871 L220.844037,18.2896381 L228.448471,33.600702 L239.231488,0.00024896751 L249.752049,0.00024896751 L259.79459,33.600702 L273.917131,0.000179877551 L287.604221,0.000110786884 L266.958975,51.9954014 Z" id="Shape" fill-rule="nonzero"></path>
            <path d="M0,52 L8.82758621,0 L22.2068966,0 L32.6206897,27.7241379 L42.9655172,0 L56.3448276,0 L65.1724138,52 L51.7241379,52 L47.2413793,22.0689655 L34.9655172,52 L29.5862069,52 L17.9310345,22.0689655 L13.4482759,52 L0,52 Z M101.14974,32.6896552 L95.0807747,15.3793103 L89.0118092,32.6896552 L101.14974,32.6896552 Z M104.735947,42.9655172 L85.4256023,42.9655172 L82.322154,52 L67.9083609,52 L87.7014644,0 L102.460085,0 L122.253188,52 L107.839395,52 L104.735947,42.9655172 Z M140.851205,40.5517241 L143.954653,40.5517241 C146.299492,40.5517241 148.391425,40.1839117 150.230515,39.4482759 C152.069605,38.71264 153.621313,37.7011559 154.885687,36.4137931 C156.150061,35.1264303 157.115569,33.59771 157.782239,31.8275862 C158.448909,30.0574624 158.782239,28.1149531 158.782239,26 C158.782239,23.9310241 158.437415,22.000009 157.747756,20.2068966 C157.058098,18.4137841 156.081096,16.8735697 154.816722,15.5862069 C153.552348,14.2988441 152.000639,13.28736 150.161549,12.5517241 C148.32246,11.8160883 146.253515,11.4482759 143.954653,11.4482759 L140.851205,11.4482759 L140.851205,40.5517241 Z M127.333963,0 L147.333963,0 C150.874211,0 154.196017,0.712636552 157.29948,2.13793103 C160.402944,3.56322552 163.115561,5.45975828 165.437411,7.82758621 C167.759262,10.1954141 169.58683,12.9540072 170.92017,16.1034483 C172.25351,19.2528893 172.92017,22.5517069 172.92017,26 C172.92017,29.4023159 172.265004,32.6781452 170.954653,35.8275862 C169.644301,38.9770272 167.828228,41.7471145 165.506377,44.137931 C163.184526,46.5287476 160.47191,48.4367745 157.368446,49.862069 C154.264982,51.2873634 150.920188,52 147.333963,52 L127.333963,52 L127.333963,0 Z" id="Mad"></path>
        </g>
    </g>
</svg>