<svg xmlns="http://www.w3.org/2000/svg" width="316" height="52" viewBox="0 0 316 52">
    <g fill="#333" fill-rule="evenodd">
        <path fill-rule="nonzero" d="M191.992 34.146h8.43c2.554 0 4.829-.29 6.823-.868l2.18-6.82 6.094-19.064a15.21 15.21 0 0 0-1.59-2.12C210.798 1.759 206.221 0 200.195 0H179v51.995h12.992V34.146zm11.16-22.184c1.221 1.249 1.832 2.92 1.832 5.014 0 2.11-.537 3.783-1.612 5.02-1.178 1.374-3.347 2.061-6.508 2.061h-4.872V10.09h4.908c2.946 0 5.03.624 6.251 1.873zm75.94 30.72l3.93-10.088h11.343l-5.383-15.304L295.715 0 315 51.995h-14.222l-3.296-9.312h-18.39zm-12.133 9.313h-13.505l-9.29-30.132-9.745 30.132h-13.47l-6.987-12.177 6.882-21.528 7.604 15.31L239.231 0h10.521l10.043 33.6L273.917 0h13.687L266.96 51.995z"/>
        <path d="M0 52L8.828 0h13.379L32.62 27.724 42.966 0h13.379l8.827 52H51.724l-4.483-29.931L34.966 52h-5.38L17.931 22.069 13.448 52H0zm101.15-19.31l-6.07-17.31-6.068 17.31h12.138zm3.586 10.276h-19.31L82.322 52H67.908L87.701 0h14.76l19.792 52H107.84l-3.103-9.034zm36.115-2.414h3.104c2.344 0 4.436-.368 6.276-1.104 1.839-.735 3.39-1.747 4.655-3.034 1.264-1.288 2.23-2.816 2.896-4.586.667-1.77 1-3.713 1-5.828 0-2.069-.345-4-1.034-5.793-.69-1.793-1.667-3.333-2.931-4.62-1.265-1.288-2.816-2.3-4.655-3.035-1.84-.736-3.908-1.104-6.207-1.104h-3.104v29.104zM127.334 0h20c3.54 0 6.862.713 9.965 2.138 3.104 1.425 5.817 3.322 8.138 5.69 2.322 2.367 4.15 5.126 5.483 8.275a25.13 25.13 0 0 1 2 9.897 25.34 25.34 0 0 1-1.965 9.828c-1.31 3.149-3.127 5.92-5.449 8.31-2.321 2.39-5.034 4.299-8.138 5.724C154.265 51.287 150.92 52 147.334 52h-20V0z"/>
    </g>
</svg>
