<?xml version="1.0" encoding="UTF-8"?>
<svg width="152px" height="58px" viewBox="0 0 152 58" version="1.1" xmlns="http://www.w3.org/2000/svg" xmlns:xlink="http://www.w3.org/1999/xlink">
    <!-- Generator: Sketch 49 (51002) - http://www.bohemiancoding.com/sketch -->
    <title>PWA logo</title>
    <desc>Created with Sketch.</desc>
    <defs></defs>
    <g id="MADPWA-7" stroke="none" stroke-width="1" fill="none" fill-rule="evenodd">
        <g id="MADPWA_7" transform="translate(-644.000000, -3183.000000)" fill="#FFEA69" fill-rule="nonzero">
            <g id="примущества" transform="translate(60.000000, 2805.000000)">
                <g id="romb" transform="translate(297.000000, 134.000000)">
                    <g id="PWA-logo" transform="translate(287.000000, 244.000000)">
                        <path d="M14.5865597,38.0895754 L24.0516783,38.0895754 C26.9188341,38.0895754 29.4719279,37.7667186 31.7109596,37.1210049 L34.1587663,29.512601 L41,8.24824547 C40.4787274,7.41466562 39.883613,6.62651933 39.2146569,5.88390918 C35.7020899,1.96125801 30.5628926,0 23.7969086,0 L0,0 L0,58 L14.5865597,58 L14.5865597,38.0895754 Z M27.1150935,13.3434801 C28.4871106,14.7366337 29.1730409,16.6009326 29.1730409,18.9365345 C29.1730409,21.290051 28.5697132,23.1566386 27.3631361,24.5362971 C26.040399,26.0692948 23.604795,26.8357542 20.0564804,26.8357542 L14.5865597,26.8357542 L14.5865597,11.2536313 L20.0966866,11.2536313 C23.4036857,11.2536313 25.7431547,11.9502476 27.1150935,13.3434801 Z M112,47.6119953 L116.376577,36.3582511 L129.013466,36.3582511 L123.016337,19.2869276 L130.516823,0 L152,58 L136.156933,58 L132.485855,47.6119953 L112,47.6119953 Z M98.731247,58 L83.5098138,58 L73.0387179,24.3877314 L62.0563408,58 L46.8748772,58 L39,44.416827 L46.7562248,20.4017051 L55.3269973,37.4809771 L67.4802721,0.000154138504 L79.3377402,0.000154138504 L90.6564432,37.4809771 L106.573615,7.70696465e-05 L122,0 L98.731247,58 Z" id="Shape"></path>
                    </g>
                </g>
            </g>
        </g>
    </g>
</svg>