<?xml version="1.0" encoding="UTF-8"?>
<svg width="52px" height="52px" viewBox="0 0 52 52" version="1.1" xmlns="http://www.w3.org/2000/svg" xmlns:xlink="http://www.w3.org/1999/xlink">
    <!-- Generator: Sketch 49 (51002) - http://www.bohemiancoding.com/sketch -->
    <title>techlogos/react</title>
    <desc>Created with Sketch.</desc>
    <defs></defs>
    <g id="techlogos/react" stroke="none" stroke-width="1" fill="none" fill-rule="evenodd">
        <g id="CodeSandbox_-Online-Code-Editor-Tailored-for-Web-Application-Development-1" transform="translate(2.000000, 4.000000)" fill="#00DBFC" fill-rule="nonzero">
            <path d="M39.4656339,13.8047175 C38.9676934,13.6337869 38.4517251,13.472059 37.9204631,13.3191077 C38.0077822,12.9636982 38.0879242,12.6128901 38.1591808,12.2680467 C39.3288456,6.60560998 38.5640779,2.04391152 35.952624,0.542006273 C33.4485673,-0.898121971 29.3533738,0.603442437 25.2174255,4.19315446 C24.8197052,4.53833873 24.4208741,4.90380292 24.0222144,5.28682026 C23.7565832,5.03340677 23.4913796,4.78851426 23.2268595,4.55427293 C18.8922647,0.715919154 14.5475025,-0.90161557 11.9386119,0.604635373 C9.43694754,2.0489389 8.69610292,6.33737001 9.74897209,11.7037032 C9.85064492,12.2220335 9.96949104,12.7513558 10.1038872,13.2895399 C9.48898014,13.4636232 8.89534751,13.6492099 8.32734667,13.8466406 C3.24549932,15.6136331 0,18.3829466 0,21.2554489 C0,24.2221935 3.48404599,27.1978847 8.77718486,29.0021987 C9.19489787,29.1445842 9.62833172,29.2792154 10.0750087,29.4070299 C9.93001809,29.9890971 9.80390961,30.5594903 9.69805022,31.1158242 C8.69413783,36.3890233 9.47812933,40.5761399 11.9731294,42.0113262 C14.5502366,43.493463 18.8753475,41.9699995 23.0869097,38.2984863 C23.4197814,38.0082621 23.7538492,37.700485 24.0885152,37.3778814 C24.522291,37.7944712 24.9553828,38.1887362 25.3861682,38.558546 C29.4655556,42.0595549 33.4946192,43.4732683 35.9873122,42.0340774 C38.5618564,40.5476799 39.3985641,36.0497183 38.3122879,30.5772142 C38.2293262,30.1592607 38.1327799,29.7322751 38.0243574,29.2977061 C38.3280943,29.2081504 38.6262776,29.1156981 38.9170279,29.0195817 C44.4197496,27.201293 48,24.2618157 48,21.2554489 C48,18.372551 44.6498374,15.5845766 39.4656339,13.8047175 Z M38.2721316,27.0784208 C38.0096619,27.1650788 37.740357,27.2488401 37.4659258,27.3300448 C36.8584521,25.4120609 36.0385761,23.3725679 35.0352617,21.2654186 C35.9926952,19.2084576 36.780873,17.1950389 37.3713444,15.2894956 C37.8623644,15.4311992 38.3389451,15.580657 38.7981817,15.73838 C43.2400027,17.263377 45.9494556,19.5181095 45.9494556,21.2554489 C45.9494556,23.1060322 43.0233287,25.5083477 38.2721316,27.0784208 Z M36.3007039,30.9743761 C36.7810438,33.3942449 36.8496516,35.5820878 36.5314755,37.2924158 C36.2455956,38.8292572 35.6706741,39.8539031 34.9598186,40.2642729 C33.4471147,41.1375013 30.2122102,40.0024236 26.7234649,37.008327 C26.3235232,36.6651024 25.9206767,36.2986159 25.5165486,35.9107413 C26.8690536,34.4355067 28.2207896,32.7204923 29.5400587,30.8158009 C31.8605061,30.6104459 34.0527947,30.2747197 36.0408829,29.816377 C36.1387963,30.2103013 36.2257736,30.5966417 36.3007039,30.9743761 Z M16.364285,40.1133666 C14.886355,40.6339123 13.709257,40.6488239 12.9977181,40.2396472 C11.4836473,39.3687194 10.8542156,36.0068579 11.7127956,31.4972226 C11.8111363,30.9807668 11.9281883,30.4502518 12.063097,29.9079775 C14.0293983,30.3416094 16.2056241,30.653647 18.531625,30.8417047 C19.8597799,32.7054956 21.2505617,34.4186354 22.6521088,35.918666 C22.3458941,36.2134912 22.0408755,36.4941721 21.7375659,36.7586626 C19.8752443,38.3821621 18.0089926,39.534026 16.364285,40.1133666 Z M9.44036514,27.0670878 C7.09983947,26.2692699 5.16694496,25.2323537 3.84203689,24.1008548 C2.65152495,23.0840482 2.05045907,22.0745695 2.05045907,21.2554489 C2.05045907,19.5123152 4.65627396,17.2889399 9.00231757,15.7777469 C9.52964927,15.5943757 10.0816729,15.4215705 10.6545438,15.2592462 C11.2551825,17.2078204 12.0431042,19.2450977 12.9939588,21.3052114 C12.0308009,23.3959153 11.2316866,25.4656579 10.6251527,27.4370679 C10.2167526,27.31999 9.82108292,27.1967769 9.44036514,27.0670878 Z M11.7613252,11.3109719 C10.8592565,6.71322979 11.4583573,3.24485629 12.9659347,2.37452496 C14.5717673,1.44735878 18.1227122,2.76930122 21.8652979,6.08353047 C22.104528,6.29536166 22.3446981,6.51707715 22.5855516,6.74646154 C21.1909251,8.23993103 19.8128737,9.94020433 18.4965096,11.7930029 C16.2390309,12.0016813 14.0780987,12.3368961 12.091292,12.7857805 C11.9663796,12.2846626 11.8557357,11.7923212 11.7613252,11.3109719 Z M32.4663564,16.409832 C31.9913992,15.591649 31.5037967,14.7928085 31.0067107,14.0157818 C32.5382111,14.2088668 34.0055464,14.4651774 35.3835124,14.7788342 C34.9698148,16.1011175 34.4541887,17.483644 33.8472274,18.9009361 C33.4118286,18.0765327 32.9513104,17.2453126 32.4663564,16.409832 Z M24.0228977,8.20797741 C24.9687114,9.22989673 25.9158921,10.3708539 26.8475229,11.6087796 C25.9087151,11.5645558 24.9582877,11.5415492 24.0000002,11.5415492 C23.0507689,11.5415492 22.1073476,11.5640446 21.1743497,11.6075015 C22.1069203,10.381079 23.0623031,9.24165563 24.0228977,8.20797741 Z M15.5253559,16.4239768 C15.0509112,17.2444605 14.598937,18.0711645 14.1703732,18.8994023 C13.5732376,17.4870524 13.0623957,16.0982203 12.6451099,14.7571909 C14.0146173,14.4515439 15.4750322,14.201624 16.9967925,14.012203 C16.4927003,14.7963873 16.0010823,15.6011073 15.5253559,16.4238064 L15.5253559,16.4239768 Z M17.0406229,28.6445739 C15.4683679,28.4696385 13.9859951,28.2325855 12.6168294,27.935374 C13.0407795,26.5704007 13.5628994,25.1519158 14.1726801,23.7091459 C14.6023546,24.5367873 15.056123,25.3638322 15.5334727,26.1861054 L15.5335581,26.1861054 C16.0197935,27.0238014 16.5235439,27.8443701 17.0406229,28.6445739 Z M24.0796296,34.4470952 C23.1077569,33.4013173 22.138362,32.2445113 21.1916085,31.0001948 C22.1106795,31.0361531 23.0476929,31.0545586 24.0000002,31.0545586 C24.9783662,31.0545586 25.9455396,31.0325744 26.897505,30.9903103 C25.9627982,32.2570372 25.0190353,33.4156326 24.0796296,34.4470952 Z M33.866793,23.6356102 C34.5083571,25.0939732 35.0491882,26.505045 35.4786064,27.8467561 C34.0868848,28.163395 32.584263,28.4184277 31.0010717,28.607934 C31.4993541,27.8204262 31.9912282,27.0078669 32.4745586,26.1720455 C32.9635282,25.3264252 33.4278056,24.4795266 33.866793,23.6356102 Z M30.6983599,25.150382 C29.9480316,26.4478692 29.1777103,27.6864765 28.395684,28.8556385 C26.9713243,28.9572081 25.4998024,29.0095269 24.0000002,29.0095269 C22.506264,29.0095269 21.0532821,28.963258 19.6541274,28.8726801 C18.8405737,27.688181 18.0535065,26.4459096 17.3079626,25.1615444 L17.3081335,25.1615444 C16.5645548,23.8806731 15.8801856,22.5889799 15.2600668,21.3045299 C15.8800147,20.0170972 16.5625897,18.7239557 17.3018964,17.4453849 L17.3017256,17.4456405 C18.0429974,16.1636613 18.8231441,14.9274398 19.6291789,13.7503537 C21.0566996,13.6427339 22.5205322,13.5865808 23.9999147,13.5865808 L24.0000002,13.5865808 C25.4860468,13.5865808 26.9517589,13.64316 28.3788523,13.7517171 C29.1725839,14.920197 29.9474334,16.1524137 30.6916102,17.4345632 C31.4442457,18.7311133 32.1356209,20.0156485 32.7608659,21.2754734 C32.1375006,22.5569411 31.4476633,23.8544286 30.6983599,25.150382 Z M34.9283769,2.31368526 C36.5357477,3.23812474 37.1608217,6.96638764 36.1509287,11.8552912 C36.0865072,12.1672437 36.0139695,12.4849904 35.9351942,12.8069977 C33.9437737,12.3487402 31.7813036,12.0077312 29.5172466,11.7959 C28.1983191,9.92273635 26.8315457,8.21982155 25.4596459,6.7455242 C25.8284876,6.39164858 26.1968167,6.05421835 26.5636078,5.73578992 C30.1072905,2.66014769 33.4193471,1.445825 34.9283769,2.31368526 Z M24.0000002,16.9807366 C26.3671828,16.9807366 28.2862361,18.8945453 28.2862361,21.2554489 C28.2862361,23.6162673 26.3671828,25.5301615 24.0000002,25.5301615 C21.6328174,25.5301615 19.7137641,23.6162673 19.7137641,21.2554489 C19.7137641,18.8945453 21.6328174,16.9807366 24.0000002,16.9807366 Z" id="Shape"></path>
        </g>
    </g>
</svg>