<svg xmlns="http://www.w3.org/2000/svg" width="24" height="24" viewBox="0 0 24 24">
    <path fill="#333" fill-rule="nonzero" d="M21.188 11.964c-.083.065-.167.107-.23.172v-8.1C20.939 2.9 20.126 2 19.106 2H4.855c-1 0-1.834.9-1.834 2.036v8.1c-.083-.065-.166-.129-.25-.172-.604-.428-1 .15-.625.729.73.921 2.104 2.057 4.209 2.936-2.23 7.821 5.458 9.064 5.354 5.057v-3.943c.208.043.375.107.541.128v3.815c-.125 4.007 7.584 2.764 5.334-5.057 2.104-.9 3.5-2.036 4.208-2.936.396-.579 0-1.179-.604-.729zm-7.604 1.993c-.938-.043-1.292.364-1.334 1.007a8.21 8.21 0 0 1-.687-.578c-.042-.043-.083-.065-.104-.107-.209-.215-.542-.343-1.084-.322-1.27.043-3.583.3-6.27-1.157V4.957c0-1.436.354-1.886 1.625-1.886h12.625c1.208 0 1.625.536 1.625 1.865v7.778c-2.75 1.543-5.105 1.286-6.396 1.243zm1.375-5.678c-1.354 0-2.459 1.05-2.459 2.357 0 1.307 1.105 2.357 2.459 2.357s2.458-1.05 2.458-2.357c0-1.307-1.104-2.357-2.458-2.357zm-5.688 0c1.354 0 2.459 1.05 2.459 2.357 0 1.307-1.105 2.357-2.459 2.357s-2.458-1.05-2.458-2.357c0-1.307 1.104-2.357 2.458-2.357z"/>
</svg>
