<svg xmlns="http://www.w3.org/2000/svg" width="24" height="24" viewBox="0 0 24 24">
    <path fill="#333" fill-rule="evenodd" d="M21.74 5.967a7.937 7.937 0 0 1-2.327.66 4.177 4.177 0 0 0 1.78-2.32 7.937 7.937 0 0 1-2.572 1.017 3.976 3.976 0 0 0-2.956-1.323c-2.235 0-4.048 1.878-4.048 4.193 0 .329.035.647.104.954-3.365-.177-6.348-1.843-8.346-4.382a4.302 4.302 0 0 0-.549 2.111c0 1.452.714 2.737 1.802 3.49a3.959 3.959 0 0 1-1.836-.524v.051c0 2.032 1.396 3.728 3.25 4.112-.34.098-.698.147-1.068.147-.26 0-.515-.025-.76-.074.514 1.665 2.01 2.878 3.782 2.912A7.954 7.954 0 0 1 2 18.727a11.188 11.188 0 0 0 6.208 1.884c7.45 0 11.522-6.389 11.522-11.93 0-.183-.004-.365-.01-.544a8.394 8.394 0 0 0 2.02-2.17"/>
</svg>
