<?xml version="1.0" encoding="UTF-8"?>
<svg width="52px" height="52px" viewBox="0 0 52 52" version="1.1" xmlns="http://www.w3.org/2000/svg" xmlns:xlink="http://www.w3.org/1999/xlink">
    <!-- Generator: Sketch 49 (51002) - http://www.bohemiancoding.com/sketch -->
    <title>techlogos/wb</title>
    <desc>Created with Sketch.</desc>
    <defs></defs>
    <g id="techlogos/wb" stroke="none" stroke-width="1" fill="none" fill-rule="evenodd">
        <g id="Group" transform="translate(3.000000, 5.000000)" fill-rule="nonzero">
            <polygon id="Shape" fill="#616161" points="45.63 31.25 20.25 41.25 0 31.25 0 10 20.25 0 45.63 10"></polygon>
            <polygon id="Shape" fill="#FFFFFF" points="19.38 38.46 2.25 30.17 2.25 11.13 5.98 9.3 5.98 27.29 7.72 27.79 7.72 8.45 12.21 6.26 12.21 29.17 14.4 29.88 14.4 5.18 19.38 2.75"></polygon>
            <path d="M21.63,3.56 L21.63,19.46 L43.76,19.67 L43.76,11.42 L21.63,3.56 Z M40.15,15.42 L26.5,13.75 L26.5,11.38 L40.15,14 L40.15,15.42 Z" id="Shape" fill="#DA7B1D"></path>
            <path d="M21.63,21.71 L21.63,37.6 L43.76,30.06 L43.76,21.5 L21.63,21.71 Z M40.15,27.28 L26.67,29.75 L26.67,27.31 L40.15,25.56 L40.15,27.28 Z" id="Shape" fill="#DA7B1D"></path>
        </g>
    </g>
</svg>