<?xml version="1.0" encoding="UTF-8"?>
<svg width="150px" height="150px" viewBox="0 0 150 150" version="1.1" xmlns="http://www.w3.org/2000/svg" xmlns:xlink="http://www.w3.org/1999/xlink">
    <!-- Generator: Sketch 49 (51002) - http://www.bohemiancoding.com/sketch -->
    <title>wifi</title>
    <desc>Created with Sketch.</desc>
    <defs>
        <path d="M32.4763109,30 C31.6046671,30 30.8326416,30.5212104 30.5005874,31.3154381 C30.176834,32.1179407 30.3677657,33.0279922 30.9903679,33.6319357 L115.996242,118.349563 C116.527529,118.903868 117.324459,119.127245 118.063279,118.928688 C118.810402,118.738404 119.391496,118.159281 119.582427,117.414691 C119.78166,116.678376 119.557523,115.884148 119.001331,115.354663 L33.9954573,30.6370363 C33.5969922,30.223375 33.0491039,30 32.4763109,30 Z" id="path-1"></path>
        <filter x="-2.6%" y="-2.8%" width="105.1%" height="111.2%" filterUnits="objectBoundingBox" id="filter-2">
            <feOffset dx="0" dy="5" in="SourceAlpha" result="shadowOffsetOuter1"></feOffset>
            <feColorMatrix values="0 0 0 0 1   0 0 0 0 1   0 0 0 0 1  0 0 0 1 0" type="matrix" in="shadowOffsetOuter1"></feColorMatrix>
        </filter>
    </defs>
    <g id="wifi" stroke="none" stroke-width="1" fill="none" fill-rule="evenodd">
        <g id="Group" transform="translate(37.000000, 43.000000)" fill="#333333" fill-rule="nonzero">
            <path d="M7.70961554,0 C7.08647279,0 6.53454775,0.374802966 6.29716047,0.945933035 C6.06570749,1.52301352 6.20220556,2.17743263 6.64730709,2.61172907 L14.2733731,10.2565442 L23.4780652,19.4779143 L28.2554838,24.2789768 L39.0388006,35.0888029 L67.4184506,63.5322698 C67.7982703,63.9308713 68.3679997,64.0915021 68.896186,63.9487195 C69.4303082,63.8118859 69.8457352,63.3954377 69.9822332,62.8600025 C70.1246656,62.3305177 69.9644288,61.7593876 69.5668047,61.3786342 L44.1723017,35.9217009 C47.7509138,36.9211785 51.0743357,38.7833001 53.8458325,41.4545242 L54.937814,42.5134938 L63.3888012,33.6907237 L62.2908854,32.637703 C55.7389965,26.3314751 47.1515113,22.8571005 38.1070559,22.8571005 C35.952766,22.8571005 33.8281506,23.0772232 31.7450768,23.463927 L26.6946621,18.4010965 C30.3622963,17.3302277 34.1961001,16.7650465 38.1070559,16.7650465 C48.7182673,16.7650465 58.8012924,20.8462475 66.4926402,28.2471413 L67.590556,29.300162 L76,20.5190372 L74.9020842,19.4600661 C64.9377528,9.86389147 51.8695838,4.58093833 38.1070559,4.58093833 C30.8252007,4.58093833 23.7451255,6.07420587 17.211041,8.88821094 L8.79566121,0.458093529 C8.51079647,0.16062919 8.11910822,0 7.70961554,0 Z M11.3032396,11.5555556 C7.64665895,13.7084272 4.21638204,16.3196148 1.0957829,19.3589635 L0,20.4263535 L8.43871904,29.3333333 L9.54045843,28.2599133 C12.756343,25.1301074 16.4010123,22.5912868 20.3255814,20.6916934 L11.3032396,11.5555556 Z M24.601207,25.7777778 C20.5110049,27.4144575 16.734976,29.8196143 13.4687427,32.9287177 L12.372093,33.9670408 L20.8073957,42.6666667 L21.9040439,41.6224777 C25.4073918,38.2845893 29.7880587,36.2020772 34.4651163,35.545059 L24.601207,25.7777778 Z M38.1499976,40.8888889 C33.8741618,40.8888889 29.8097684,42.5240541 26.7086127,45.5013436 L25.627907,46.5387059 L38.1499976,59.5555556 L48.6046512,48.689622 L41.0632045,41.1526248 C40.1058397,40.9826618 39.136729,40.8888889 38.1499976,40.8888889 Z" id="Shape"></path>
        </g>
        <g id="Shape-Copy" fill-rule="nonzero">
            <use fill="black" fill-opacity="1" filter="url(#filter-2)" xlink:href="#path-1"></use>
            <use fill="#FF005B" fill-rule="evenodd" xlink:href="#path-1"></use>
        </g>
    </g>
</svg>