<?xml version="1.0" encoding="UTF-8"?>
<svg width="401px" height="195px" viewBox="0 0 401 195" version="1.1" xmlns="http://www.w3.org/2000/svg" xmlns:xlink="http://www.w3.org/1999/xlink">
    <!-- Generator: Sketch 49 (51002) - http://www.bohemiancoding.com/sketch -->
    <title>winphone_black_hor_convers</title>
    <desc>Created with Sketch.</desc>
    <defs>
        <rect id="path-1" x="105.5" y="-101.80315" width="190" height="400" rx="3.49999994"></rect>
        <linearGradient x1="98.0535852%" y1="68.8414931%" x2="0%" y2="68.8414931%" id="linearGradient-2">
            <stop stop-color="#FFFFFF" offset="0%"></stop>
            <stop stop-color="#FF005B" offset="14.7850236%"></stop>
            <stop stop-color="#FF005B" offset="100%"></stop>
        </linearGradient>
    </defs>
    <g id="winphone_black_hor_convers" stroke="none" stroke-width="1" fill="none" fill-rule="evenodd">
        <g id="winphone">
            <path d="M49.5684863,1.11032721 L73.5549266,1.11032721 C74.2357091,1.11032721 74.7875923,1.66221042 74.7875923,2.34299285 L74.7875923,2.34299285 C74.7875923,3.02377529 74.2357091,3.57565849 73.5549266,3.57565849 L49.5684863,3.57565849 C48.8877038,3.57565849 48.3358206,3.02377529 48.3358206,2.34299285 L48.3358206,2.34299285 C48.3358206,1.66221042 48.8877038,1.11032721 49.5684863,1.11032721 Z" id="Rectangle-2-Copy-4" stroke="#000000" stroke-width="0.699999988"></path>
            <path d="M88.1041317,1.11032721 L112.090572,1.11032721 C112.771355,1.11032721 113.323238,1.66221042 113.323238,2.34299285 L113.323238,2.34299285 C113.323238,3.02377529 112.771355,3.57565849 112.090572,3.57565849 L88.1041317,3.57565849 C87.4233493,3.57565849 86.8714661,3.02377529 86.8714661,2.34299285 L86.8714661,2.34299285 C86.8714661,1.66221042 87.4233493,1.11032721 88.1041317,1.11032721 Z" id="Rectangle-2-Copy-8" stroke="#000000" stroke-width="0.699999988"></path>
            <path d="M120.528095,192.731901 L172.196622,192.731901 C172.877405,192.731901 173.429288,193.283784 173.429288,193.964567 L173.429288,193.964567 C173.429288,194.645349 172.877405,195.197233 172.196622,195.197233 L120.528095,195.197233 C119.847313,195.197233 119.295429,194.645349 119.295429,193.964567 L119.295429,193.964567 C119.295429,193.283784 119.847313,192.731901 120.528095,192.731901 Z" id="Rectangle-2-Copy-5" stroke="#000000" stroke-width="0.699999988"></path>
            <g id="Rectangle" transform="translate(200.500000, 98.196850) rotate(-90.000000) translate(-200.500000, -98.196850) ">
                <use fill="#FFFFFF" fill-rule="evenodd" xlink:href="#path-1"></use>
                <rect stroke="#000000" stroke-width="0.699999988" x="105.85" y="-101.45315" width="189.3" height="399.3" rx="3.49999994"></rect>
            </g>
            <rect id="Rectangle-2-Copy-9" stroke="#000000" stroke-width="0.699999988" transform="translate(377.378613, 98.000000) rotate(-90.000000) translate(-377.378613, -98.000000) " x="373.54003" y="94.1464355" width="7.67716535" height="7.70712909" rx="1.54000001"></rect>
            <rect id="Rectangle-4" stroke="#000000" stroke-width="0.699999988" transform="translate(200.350539, 97.685531) rotate(-90.000000) translate(-200.350539, -97.685531) " x="114.536071" y="-55.1650078" width="171.628937" height="305.701079"></rect>
            <g id="Group-2" transform="translate(23.809249, 103.602362) rotate(-90.000000) translate(-23.809249, -103.602362) translate(3.309249, 101.102362)" stroke="#000000" stroke-width="0.699999988">
                <rect id="Rectangle-2" x="11.515748" y="0" width="29.1732283" height="4.62427746" rx="2.31213873"></rect>
                <ellipse id="Oval-2" cx="2.30314961" cy="2.31213873" rx="2.30314961" ry="2.31213873"></ellipse>
            </g>
        </g>
        <g id="lines" transform="translate(99.000000, 16.000000)" stroke-width="0.911363636">
            <path d="M1.39809258,162.872706 L1.39809258,0" id="Rectangle-10-Copy-2" stroke="#D6D6D6"></path>
            <path d="M49.9653876,162.872706 L49.9653876,0" id="Rectangle-10-Copy-4" stroke="#D6D6D6"></path>
            <path d="M98.1345901,162.872706 L98.1345901,0" id="Rectangle-10-Copy-6" stroke="#D6D6D6"></path>
            <path d="M146.701885,162.872706 L146.701885,0" id="Rectangle-10-Copy-8" stroke="#FFEA69" stroke-dasharray="9.113636363636363,9.113636363636363"></path>
            <path d="M194.871088,162.872706 L194.871088,0" id="Rectangle-10-Copy-11" stroke="#D6D6D6"></path>
            <path d="M243.90116,162.872706 L243.90116,0" id="Rectangle-10-Copy-9" stroke="#D6D6D6"></path>
        </g>
        <g id="Group" transform="translate(50.000000, 16.000000)" stroke="#D6D6D6" stroke-width="0.911363636">
            <polyline id="Rectangle-10" points="299.663668 162.609626 2.38459152 162.609626 2.38459152 0"></polyline>
            <g id="Group-3" transform="translate(2.384592, 6.724599)">
                <path d="M297.279076,123.673797 L0,123.673797" id="Rectangle-10-Copy"></path>
                <path d="M297.279076,82.6737968 L0,82.6737968" id="Rectangle-10-Copy-3"></path>
                <path d="M297.279076,41.6737968 L0,41.6737968" id="Rectangle-10-Copy-5"></path>
                <path d="M297.279076,0.398395722 L0,0.398395722" id="Rectangle-10-Copy-7"></path>
            </g>
        </g>
        <polyline id="Path-4" stroke="url(#linearGradient-2)" stroke-width="1.82272727" stroke-linecap="round" stroke-linejoin="round" points="53 172 88.6713287 154.059801 134.311189 165.023256 180.15035 130.33887 226.188811 150.07309 272.227273 105.222591 318.265734 73.7275748 341.5 24.5"></polyline>
        <g id="logo" transform="translate(221.000000, 31.000000)">
            <rect id="Rectangle" fill="#FFEA69" x="0" y="0" width="50" height="26" rx="8.20227273"></rect>
            <g id="Group-2-Copy" transform="translate(7.000000, 6.000000)" fill="#222222" fill-rule="nonzero">
                <polygon id="Shape" points="27.7530713 11.7872314 28.7899543 9.00115854 31.7838414 9.00115854 30.3630229 4.77483618 32.1400113 0 37.2297297 14.3589744 33.4762463 14.3589744 32.6065076 11.7872314"></polygon>
                <polygon id="Shape" points="24.0907539 14.3589744 29.7837838 0 26.0095002 1.90800186e-05 22.1151388 9.27911015 19.3458578 3.81598418e-05 16.4447603 3.81598418e-05 13.4712896 9.27911015 11.3743287 5.05082 9.47665848 10.9962083 11.4033587 14.3589744 15.1177187 14.3589744 17.8047128 6.03763465 20.3666147 14.3589744"></polygon>
                <path d="M3.61233044,9.42977994 L5.95634689,9.42977994 C6.66639192,9.42977994 7.29866015,9.34985075 7.85315158,9.18999238 L8.4593457,7.30639106 L10.1535627,2.04200595 C10.0244706,1.83563782 9.8770918,1.64051761 9.71142625,1.45667071 C8.84154651,0.48554575 7.56883525,0 5.89325373,0 L0,0 L0,14.3589744 L3.61233044,14.3589744 L3.61233044,9.42977994 Z M6.71499515,3.30342566 C7.05477225,3.64832665 7.22464143,4.10986837 7.22464143,4.68808989 C7.22464143,5.2707465 7.07522862,5.73285482 6.77642236,6.07441483 C6.44884934,6.45393682 5.84567718,6.64368804 4.96694464,6.64368804 L3.61233044,6.64368804 L3.61233044,2.78604488 L4.97690162,2.78604488 C5.79587291,2.78604488 6.37523742,2.95850514 6.71499515,3.30342566 Z" id="Shape"></path>
            </g>
        </g>
    </g>
</svg>