<?xml version="1.0" encoding="UTF-8"?>
<svg width="401px" height="195px" viewBox="0 0 401 195" version="1.1" xmlns="http://www.w3.org/2000/svg" xmlns:xlink="http://www.w3.org/1999/xlink">
    <!-- Generator: Sketch 49 (51002) - http://www.bohemiancoding.com/sketch -->
    <title>winphone_black_hor</title>
    <desc>Created with Sketch.</desc>
    <defs>
        <rect id="path-1" x="2.30314961" y="0" width="190" height="400" rx="3.49999994"></rect>
    </defs>
    <g id="winphone_black_hor" stroke="none" stroke-width="1" fill="none" fill-rule="evenodd">
        <g id="winphone">
            <g id="Group" transform="translate(200.500000, 98.000000) rotate(-90.000000) translate(-200.500000, -98.000000) translate(103.000000, -102.000000)">
                <path d="M181.163787,59.8290408 L205.150227,59.8290408 C205.83101,59.8290408 206.382893,60.380924 206.382893,61.0617064 L206.382893,61.0617064 C206.382893,61.7424889 205.83101,62.2943721 205.150227,62.2943721 L181.163787,62.2943721 C180.483005,62.2943721 179.931121,61.7424889 179.931121,61.0617064 L179.931121,61.0617064 C179.931121,60.380924 180.483005,59.8290408 181.163787,59.8290408 Z" id="Rectangle-2-Copy-4" stroke="#000000" stroke-width="0.699999988" transform="translate(193.157007, 61.061706) rotate(90.000000) translate(-193.157007, -61.061706) "></path>
                <path d="M181.163787,98.3646863 L205.150227,98.3646863 C205.83101,98.3646863 206.382893,98.9165695 206.382893,99.5973519 L206.382893,99.5973519 C206.382893,100.278134 205.83101,100.830018 205.150227,100.830018 L181.163787,100.830018 C180.483005,100.830018 179.931121,100.278134 179.931121,99.5973519 L179.931121,99.5973519 C179.931121,98.9165695 180.483005,98.3646863 181.163787,98.3646863 Z" id="Rectangle-2-Copy-8" stroke="#000000" stroke-width="0.699999988" transform="translate(193.157007, 99.597352) rotate(90.000000) translate(-193.157007, -99.597352) "></path>
                <path d="M-24.2988304,144.629693 L27.3696966,144.629693 C28.050479,144.629693 28.6023622,145.181576 28.6023622,145.862359 L28.6023622,145.862359 C28.6023622,146.543141 28.050479,147.095024 27.3696966,147.095024 L-24.2988304,147.095024 C-24.9796129,147.095024 -25.5314961,146.543141 -25.5314961,145.862359 L-25.5314961,145.862359 C-25.5314961,145.181576 -24.9796129,144.629693 -24.2988304,144.629693 Z" id="Rectangle-2-Copy-5" stroke="#000000" stroke-width="0.699999988" transform="translate(1.535433, 145.862359) rotate(90.000000) translate(-1.535433, -145.862359) "></path>
                <g id="Rectangle">
                    <use fill="#FFFFFF" fill-rule="evenodd" xlink:href="#path-1"></use>
                    <rect stroke="#000000" stroke-width="0.699999988" x="2.6531496" y="0.349999994" width="189.3" height="399.3" rx="3.49999994"></rect>
                </g>
                <rect id="Rectangle-2-Copy-9" stroke="#000000" stroke-width="0.699999988" x="93.6614173" y="373.025048" width="7.67716535" height="7.70712909" rx="1.54000001"></rect>
                <rect id="Rectangle-4" stroke="#000000" stroke-width="0.699999988" x="12" y="47" width="171.628937" height="305.701079"></rect>
                <g id="Group-2" transform="translate(71.397638, 20.809249)" stroke="#000000" stroke-width="0.699999988">
                    <rect id="Rectangle-2" x="11.515748" y="0" width="29.1732283" height="4.62427746" rx="2.31213873"></rect>
                    <ellipse id="Oval-2" cx="2.30314961" cy="2.31213873" rx="2.30314961" ry="2.31213873"></ellipse>
                </g>
            </g>
        </g>
    </g>
</svg>