<?xml version="1.0" encoding="UTF-8"?>
<svg width="52px" height="52px" viewBox="0 0 52 52" version="1.1" xmlns="http://www.w3.org/2000/svg" xmlns:xlink="http://www.w3.org/1999/xlink">
    <!-- Generator: Sketch 49 (51002) - http://www.bohemiancoding.com/sketch -->
    <title>techlogos/wp</title>
    <desc>Created with Sketch.</desc>
    <defs></defs>
    <g id="techlogos/wp" stroke="none" stroke-width="1" fill="none" fill-rule="evenodd">
        <g id="wporg-logo" transform="translate(2.000000, 2.000000)" fill="#9013FE" fill-rule="nonzero">
            <path d="M24,1.44 C28.512,1.44 32.904,2.784 36.624,5.304 C40.248,7.752 43.104,11.208 44.808,15.24 C47.784,22.272 46.992,30.312 42.72,36.624 C40.272,40.248 36.816,43.104 32.784,44.808 C25.752,47.784 17.712,46.992 11.4,42.72 C7.776,40.272 4.92,36.816 3.216,32.784 C0.24,25.752 1.032,17.712 5.304,11.4 C7.752,7.776 11.208,4.92 15.24,3.216 C18,2.04 21,1.44 24,1.44 M24,0 C10.752,0 0,10.752 0,24 C0,37.248 10.752,48 24,48 C37.248,48 48,37.248 48,24 C48,10.752 37.248,0 24,0" id="Shape"></path>
            <path d="M4.008,24 C4.008,31.656 8.376,38.664 15.288,42 L5.736,15.864 C4.584,18.432 4.008,21.192 4.008,24 Z M37.512,22.992 C37.512,20.52 36.624,18.816 35.856,17.472 C35.088,16.128 33.888,14.424 33.888,12.792 C33.888,11.16 35.28,9.24 37.248,9.24 L37.512,9.24 C29.376,1.776 16.728,2.328 9.264,10.488 C8.544,11.28 7.872,12.12 7.296,13.008 L8.592,13.008 C10.68,13.008 13.92,12.744 13.92,12.744 C15,12.672 15.12,14.256 14.04,14.4 C14.04,14.4 12.96,14.52 11.76,14.592 L19.032,36.264 L23.4,23.136 L20.28,14.592 C19.2,14.52 18.192,14.4 18.192,14.4 C17.112,14.328 17.232,12.696 18.312,12.744 C18.312,12.744 21.624,13.008 23.568,13.008 C25.512,13.008 28.896,12.744 28.896,12.744 C29.976,12.672 30.096,14.256 29.016,14.4 C29.016,14.4 27.936,14.52 26.736,14.592 L33.96,36.096 L36.024,29.568 C36.936,26.712 37.488,24.696 37.488,22.968 L37.512,22.992 Z M24.336,25.728 L18.336,43.176 C22.368,44.352 26.664,44.256 30.624,42.864 L30.48,42.6 L24.336,25.728 Z M41.544,14.4 C41.64,15.072 41.688,15.768 41.688,16.464 C41.688,18.504 41.304,20.784 40.176,23.616 L34.056,41.28 C43.416,35.832 46.752,23.904 41.544,14.4 Z" id="Shape"></path>
        </g>
    </g>
</svg>